<svg xmlns="http://www.w3.org/2000/svg" width="24" height="24" viewBox="0 0 24 24">
    <path fill-rule="nonzero" d="M16.95 2A6.612 6.612 0 0 0 12 4.278 6.612 6.612 0 0 0 7.05 2C3.662 2 1 4.638 1 7.995c0 4.12 3.74 7.476 9.405 12.577L12 22l1.595-1.439C19.26 15.471 23 12.114 23 7.995 23 4.638 20.338 2 16.95 2zm-4.84 16.948l-.11.11-.11-.11C6.654 14.251 3.2 11.144 3.2 7.995c0-2.18 1.65-3.815 3.85-3.815 1.694 0 3.344 1.079 3.927 2.572h2.057c.572-1.493 2.222-2.572 3.916-2.572 2.2 0 3.85 1.635 3.85 3.815 0 3.15-3.454 6.256-8.69 10.953z"/>
</svg>
