<svg xmlns="http://www.w3.org/2000/svg" width="102" height="100" viewBox="0 0 102 100">
    <path fill-rule="nonzero" d="M100.89 64.014c.724 1.154 1.462 2.947.927 4.959-.48 1.833-1.728 3.013-2.776 3.713a6.489 6.489 0 0 1-1.807 5.277 6.166 6.166 0 0 1-4.327 1.941 4.936 4.936 0 0 1-3.109 3.116 6.462 6.462 0 0 1-2.165.386c2.928 1.705 5.548 3.439 5.548 6.988 0 2.407-1.248 4.455-3.508 5.763-.418.24-.852.448-1.3.626a6.425 6.425 0 0 1-5.609 3.209 7.894 7.894 0 0 1-4.91-1.668 9.74 9.74 0 0 1-5.355.624 9.06 9.06 0 0 1-5.24-2.827c-1.53.512-3.919.804-6.623-.702-2.287-1.274-3.404-2.93-3.94-4.093a8.594 8.594 0 0 1-.143-.328 8.323 8.323 0 0 1-4.952-1.546 4.841 4.841 0 0 1-.6-.502 4.841 4.841 0 0 1-.598.502 8.298 8.298 0 0 1-4.949 1.55c-.043.106-.09.216-.141.328-.537 1.163-1.654 2.82-3.941 4.093-2.704 1.502-5.093 1.214-6.623.702a9.066 9.066 0 0 1-5.24 2.815 9.76 9.76 0 0 1-5.358-.616A7.894 7.894 0 0 1 19.24 100a6.425 6.425 0 0 1-5.61-3.21 10.033 10.033 0 0 1-1.299-.625c-2.26-1.308-3.508-3.364-3.508-5.763 0-3.55 2.62-5.275 5.55-6.986a6.464 6.464 0 0 1-2.163-.388 4.936 4.936 0 0 1-3.113-3.124 6.166 6.166 0 0 1-4.333-1.933 6.489 6.489 0 0 1-1.808-5.277c-1.047-.7-2.294-1.88-2.775-3.713-.531-2.012.207-3.805.926-4.96-.609-1.16-1.204-2.928-.609-4.814.595-1.886 1.944-3.095 2.921-3.76.148-1.043.517-2.565 1.43-3.842 1.194-1.676 3.014-2.476 3.864-2.774 1.589-1.21 3.095-1.61 4.408-1.155 3.495 1.211 3.23 5.138 3.03 8.294-.376 5.698.487 6.466 1.951 7.052.87.35 2.034.048 3.193-.828 1.952-1.48 2.536-4.313 1.339-6.598-3.257-6.263-7.31-14.055-7.31-21.527 0-9.276 3.862-17.94 10.872-24.395 14.032-12.899 35.58-12.899 49.612 0 7.01 6.449 10.871 15.113 10.871 24.395 0 7.468-4.053 15.266-7.317 21.519-1.19 2.293-.613 5.127 1.339 6.598 1.161.874 2.325 1.178 3.193.828 2.195-.878 2.2-3.253 1.951-7.052-.207-3.156-.465-7.083 3.03-8.294 1.312-.454 2.811-.054 4.407 1.155.85.298 2.668 1.098 3.866 2.774.912 1.277 1.28 2.803 1.428 3.843.978.664 2.323 1.863 2.922 3.759.599 1.896.01 3.653-.609 4.815zM89.183 90.408l.006-.006c0-1.346-1.134-2.128-4.145-3.86-3.957-2.287-9.379-5.42-12.879-13.47a2.002 2.002 0 0 1 1.032-2.634 1.995 1.995 0 0 1 2.628 1.034c1.397 3.214 3.147 5.499 4.989 7.24a21.81 21.81 0 0 0 6.397-1.373 17.544 17.544 0 0 0 2.489-1.18 1.866 1.866 0 0 1 .812-.498 12.915 12.915 0 0 0 4.306-4.64 1.91 1.91 0 0 1 .295-.582c.262-.544.488-1.104.675-1.678a13.65 13.65 0 0 0 .66-4.455 1.933 1.933 0 0 1 0-.304 17.571 17.571 0 0 0-1.572-6.477l-.012-.026a18.389 18.389 0 0 0-1.175-2.215c-1.577-2.51-3.076-3.56-3.626-3.76-.477.469-.334 2.68-.234 4.178.122 1.855.26 3.96-.171 5.872-.567 2.51-2.006 4.245-4.283 5.157-2.193.878-4.77.388-7.072-1.347-3.492-2.636-4.557-7.635-2.478-11.634 3.055-5.882 6.858-13.187 6.858-19.68 0-8.148-3.392-15.768-9.578-21.455-12.506-11.493-31.707-11.493-44.212 0-6.176 5.687-9.579 13.307-9.579 21.456 0 6.492 3.804 13.805 6.859 19.68 2.08 3.996 1.014 8.997-2.478 11.633-2.301 1.735-4.877 2.225-7.072 1.347-2.277-.914-3.716-2.65-4.283-5.159-.43-1.911-.293-4.017-.171-5.872.1-1.498.243-3.71-.234-4.177-.55.212-2.041 1.25-3.63 3.759-.736 1.174-2.612 4.557-2.76 8.724.009.1.009.2 0 .3-.044 2.15.427 4.28 1.375 6.21.066.096.122.198.168.304.018.042.032.084.046.124a12.907 12.907 0 0 0 4.356 4.717c.217.066.42.17.599.308.071.058.138.122.2.19.796.461 1.628.86 2.488 1.19 1.102.42 2.236.748 3.392.98.09.01.181.028.27.052.901.176 1.814.29 2.731.342 1.844-1.742 3.592-4.027 4.989-7.24a1.995 1.995 0 0 1 2.628-1.035 2.002 2.002 0 0 1 1.032 2.634c-3.5 8.05-8.922 11.183-12.88 13.47-2.998 1.734-4.132 2.516-4.132 3.862 0 .664.174 1.524 1.513 2.3 1.836 1.057 5.052 1.467 8.844 1.2a1.826 1.826 0 0 1 .924-.082 42.445 42.445 0 0 0 9.055-1.938 1.834 1.834 0 0 1 .749-.254 38.713 38.713 0 0 0 6.585-3c.7-.405 1.345-.811 1.935-1.22a2.05 2.05 0 0 1 .356-.325c.127-.092.266-.168.413-.224 4.994-3.72 5.824-7.359 5.824-9.358 0-1.104.894-2 1.996-2 1.102 0 1.995.896 1.995 2 0 2.015.839 5.679 5.903 9.416a1.763 1.763 0 0 1 .585.418c.618.432 1.295.861 2.035 1.29a38.854 38.854 0 0 0 6.517 2.973 1.814 1.814 0 0 1 .87.296 42.386 42.386 0 0 0 9.006 1.92c.195-.033.394-.033.589 0 .11.016.22.043.325.081 2.97.214 5.58 0 7.455-.6h.022a7.27 7.27 0 0 0 1.367-.6c1.34-.775 1.513-1.635 1.513-2.299zM51.176 39.303c3.925.006 7.106 3.193 7.111 7.127a7.129 7.129 0 0 1-4.39 6.587 7.103 7.103 0 0 1-7.754-1.545 7.139 7.139 0 0 1-1.542-7.769 7.114 7.114 0 0 1 6.575-4.4zm-10.138-6.656a1.998 1.998 0 0 1 2.003 1.993 1.998 1.998 0 0 1-1.989 2.006v29.941c0 1.105-.893 2-1.995 2h-5.763a1.998 1.998 0 0 1-1.996-2v-29.94h-.171a1.998 1.998 0 0 1-1.996-2c0-1.105.894-2 1.996-2h9.911zm31.835 2c0 1.104-.894 2-1.996 2h-.172v29.94c0 1.105-.893 2-1.995 2h-5.763a1.998 1.998 0 0 1-1.996-2v-29.94a1.998 1.998 0 0 1-1.988-2.007 1.998 1.998 0 0 1 2.002-1.993h9.912c1.102 0 1.996.895 1.996 2z"/>
</svg>
